<?xml version="1.0" encoding="utf-8"?><svg xmlns="http://www.w3.org/2000/svg" xmlns:xlink="http://www.w3.org/1999/xlink"><symbol viewBox="0 0 23 17" id="mail" xmlns="http://www.w3.org/2000/svg"><path d="M19.611 0H2.732A2.734 2.734 0 000 2.732v11.536A2.734 2.734 0 002.732 17h16.875a2.734 2.734 0 002.732-2.732V2.736A2.731 2.731 0 0019.611 0zm1.484 14.268c0 .818-.665 1.484-1.483 1.484H2.732a1.485 1.485 0 01-1.484-1.484V2.736c0-.818.666-1.483 1.484-1.483h16.875c.818 0 1.483.665 1.483 1.483v11.532h.005z"/><path d="M14.088 8.357l5.463-4.9a.627.627 0 00.047-.882.627.627 0 00-.883-.047L11.18 9.29 9.71 7.978c-.005-.005-.01-.01-.01-.014a.923.923 0 00-.101-.088l-5.98-5.352a.623.623 0 00-.883.05.623.623 0 00.051.883l5.528 4.941-5.505 5.154a.626.626 0 00.855.915L9.253 9.24l1.516 1.354a.624.624 0 00.832-.005l1.558-1.396 5.556 5.279a.623.623 0 10.86-.906l-5.487-5.21z"/></symbol><symbol viewBox="0 0 17 17" id="marker" xmlns="http://www.w3.org/2000/svg"><path d="M8.488 0a6.237 6.237 0 00-6.23 6.23c0 1.579.994 3.808 2.956 6.628a44.451 44.451 0 002.902 3.723l.372.419.372-.42c.06-.066 1.47-1.661 2.903-3.722 1.961-2.82 2.956-5.05 2.956-6.628A6.237 6.237 0 008.489 0zm2.465 12.282a45.188 45.188 0 01-2.465 3.206A45.143 45.143 0 016.03 12.29C4.212 9.678 3.252 7.582 3.252 6.23A5.242 5.242 0 018.488.994a5.242 5.242 0 015.237 5.236c0 1.35-.959 3.444-2.772 6.052z"/><path d="M8.488 2.303A3.681 3.681 0 004.811 5.98a3.681 3.681 0 003.677 3.677 3.681 3.681 0 003.678-3.677 3.681 3.681 0 00-3.678-3.677zm0 6.36A2.686 2.686 0 015.805 5.98a2.686 2.686 0 012.683-2.683 2.686 2.686 0 012.684 2.683 2.686 2.686 0 01-2.684 2.683z"/></symbol><symbol viewBox="0 0 24 24" id="phone" xmlns="http://www.w3.org/2000/svg"><path d="M21.232 24h-.157C2.943 22.957.369 7.652.009 2.982A2.77 2.77 0 012.556 0H7.64a1.845 1.845 0 011.716 1.163l1.403 3.452a1.848 1.848 0 01-.406 1.994L8.387 8.594a8.65 8.65 0 006.995 7.015l2.002-1.984a1.845 1.845 0 012.002-.379l3.479 1.394A1.846 1.846 0 0124 16.357v4.874A2.77 2.77 0 0121.232 24zM2.777 1.846a.923.923 0 00-.923.923v.074c.425 5.465 3.147 18.388 19.322 19.31a.922.922 0 00.979-.867v-4.93l-3.48-1.393-2.648 2.63-.442-.055c-8.028-1.006-9.117-9.036-9.117-9.12l-.055-.443 2.62-2.649-1.384-3.48H2.777z"/></symbol><symbol viewBox="0 0 17 17" id="time" xmlns="http://www.w3.org/2000/svg"><path d="M8.5 0A8.5 8.5 0 1017 8.5 8.51 8.51 0 008.5 0zm.365 16.253v-1.496a.365.365 0 00-.73 0v1.496A7.767 7.767 0 01.748 8.865h1.495a.365.365 0 000-.73H.748A7.767 7.767 0 018.135.748v1.495a.365.365 0 00.73 0V.748a7.767 7.767 0 017.388 7.387h-1.496a.365.365 0 000 .73h1.499a7.767 7.767 0 01-7.391 7.388z"/><path d="M12.347 11.891l-3.482-3.54V4.67a.365.365 0 00-.73 0V8.5c0 .096.039.187.106.255l3.585 3.647a.365.365 0 00.521-.51z"/></symbol></svg>